HIERARCHY
ROOT Hips
{
  OFFSET -35.4901 99.2528 17.4586
  CHANNELS 6 Xposition Yposition Zposition Zrotation Xrotation Yrotation
  JOINT LeftUpLeg
  {
    OFFSET 8.64259 1.95398 -2.38835
    CHANNELS 3 Zrotation Xrotation Yrotation
    JOINT LeftLeg
    {
      OFFSET 43.7702 0 0
      CHANNELS 3 Zrotation Xrotation Yrotation
      JOINT LeftFoot
      {
        OFFSET 40.6238 0 0
        CHANNELS 3 Zrotation Xrotation Yrotation
        JOINT LeftToeBase
        {
          OFFSET 12.7242 0 0
          CHANNELS 3 Zrotation Xrotation Yrotation
          End Site
          {
            OFFSET 0 0 0
          }
        }
      }
    }
  }
  JOINT RightUpLeg
  {
    OFFSET -8.2249 1.95398 -2.59336
    CHANNELS 3 Zrotation Xrotation Yrotation
    JOINT RightLeg
    {
      OFFSET 43.5653 0 0
      CHANNELS 3 Zrotation Xrotation Yrotation
      JOINT RightFoot
      {
        OFFSET 40.6238 0 0
        CHANNELS 3 Zrotation Xrotation Yrotation
        JOINT RightToeBase
        {
          OFFSET 12.7242 0 0
          CHANNELS 3 Zrotation Xrotation Yrotation
          End Site
          {
            OFFSET 0 0 0
          }
        }
      }
    }
  }
  JOINT Spine
  {
    OFFSET 0.165834 0.87714 6.61349
    CHANNELS 3 Zrotation Xrotation Yrotation
    JOINT Spine1
    {
      OFFSET 7.38963 1.71661e-005 0
      CHANNELS 3 Zrotation Xrotation Yrotation
      JOINT Spine2
      {
        OFFSET 11.9445 1.14441e-005 0
        CHANNELS 3 Zrotation Xrotation Yrotation
        JOINT Spine3
        {
          OFFSET 14.7254 4.19617e-005 0
          CHANNELS 3 Zrotation Xrotation Yrotation
          JOINT Spine4
          {
            OFFSET 10.9679 0 0
            CHANNELS 3 Zrotation Xrotation Yrotation
            JOINT RightShoulder
            {
              OFFSET 2.46616 -1.6653 3.69651
              CHANNELS 3 Zrotation Xrotation Yrotation
              JOINT RightArm
              {
                OFFSET 13.0012 0 0
                CHANNELS 3 Zrotation Xrotation Yrotation
                JOINT RightForeArm
                {
                  OFFSET 28.7848 1.52588e-005 0
                  CHANNELS 3 Zrotation Xrotation Yrotation
                  JOINT RightHand
                  {
                    OFFSET 26.5688 1.52588e-005 0
                    CHANNELS 3 Zrotation Xrotation Yrotation
                    End Site
                    {
                      OFFSET 0 0 0
                    }
                  }
                }
              }
            }
            JOINT LeftShoulder
            {
              OFFSET 2.38034 -1.29275 -3.7523
              CHANNELS 3 Zrotation Xrotation Yrotation
              JOINT LeftArm
              {
                OFFSET 16.3182 6.10351e-005 0
                CHANNELS 3 Zrotation Xrotation Yrotation
                JOINT LeftForeArm
                {
                  OFFSET 27.0901 0 0
                  CHANNELS 3 Zrotation Xrotation Yrotation
                  JOINT LeftHand
                  {
                    OFFSET 24.5451 1.52588e-005 0
                    CHANNELS 3 Zrotation Xrotation Yrotation
                    End Site
                    {
                      OFFSET 0 0 0
                    }
                  }
                }
              }
            }
            JOINT Neck
            {
              OFFSET 5.0226 -0.0266342 0
              CHANNELS 3 Zrotation Xrotation Yrotation
              JOINT Head
              {
                OFFSET 6.69364 2.86102e-005 0
                CHANNELS 3 Zrotation Xrotation Yrotation
                End Site
                {
                  OFFSET 0 0 0
                }
              }
            }
          }
        }
      }
    }
  }
}
MOTION
Frames:	6
Frame Time:	0.0416667
24.6696 95.0981 11.4637 -108.554 -54.1587 -108.418 -169.009 11.7206 99.4022 -71.6374 19.9791 4.82044 70.6426 5.19618 -1.83877 13.7292 -0.00385012 1.15596 173.843 7.73625 98.9268 -30.0223 2.25729 2.55023 78.032 -6.71317 -5.13701 7.18506 -2.07249 5.56794 -0.25909 7.76416 -89.6866 11.3463 -0.369393 0.661068 -0.324817 -0.339941 0.676682 -22.8595 -0.550993 0.519491 -2.84683 -0.550979 0.5195 90.8968 -30.9535 -104.642 47.1385 -7.59473 6.73888 -3.82204 -26.8623 -25.2742 -23.0835 0.312879 -10.453 -84.0144 -51.017 87.8419 -21.9232 8.12057 -18.9423 2.823 14.5924 -0.279183 3.15704 -0.00157939 -2.52803 -3.32501 -2.85819 -17.4942 -5.08679 -0.728505 -6.49197 
22.2686 95.409 13.7903 -101.157 -36.7316 -100.354 -175.094 21.2964 97.866 -71.8109 3.99476 5.95392 73.1461 6.92545 0.790691 9.57141 0.55519 0.76795 177.113 4.98924 100.836 -29.5668 -12.9472 -0.438387 77.0826 -7.90239 -7.27698 7.62313 -2.56274 6.38074 0.515324 7.83695 -89.6981 11.1974 1.16619 0.486437 -0.473147 1.18646 0.434638 -23.0106 0.966072 0.814454 -2.99791 0.966069 0.81445 89.5894 -32.371 -106.668 39.4949 -7.65992 -1.52063 -5.59717 -28.0599 -29.0725 -25.7034 0.239252 -9.70188 -82.8891 -50.0268 89.4317 -28.2148 5.41002 0.5521 3.57529 0.81634 -5.41084 5.04325 0.00961234 -2.85658 -3.55238 -2.30323 -21.824 -4.16631 0.205493 -6.58671 
20.0662 95.6034 15.9186 -98.3461 -17.1731 -95.5362 -179.465 25.5325 95.581 -65.6595 2.17812 6.7443 76.4886 8.6629 1.83532 7.59666 2.75002 -1.692 179.749 1.77399 100.676 -31.9872 -28.1693 -4.17301 77.1571 -9.36082 -7.10775 7.22596 -3.92559 8.64554 1.31667 8.07396 -89.6663 10.7236 2.77604 0.410262 -0.944423 2.79137 0.287588 -23.4994 2.52433 1.22609 -3.48677 2.52433 1.22609 87.9916 -33.5643 -109.229 34.1031 -6.96536 -9.97477 -5.2297 -28.705 -26.4876 -27.5769 0.190803 -9.19818 -82.279 -49.5749 90.3171 -34.7239 9.97591 12.2448 1.64896 4.09268 -8.47214 -1.73813 -0.108774 -4.13968 -4.68473 -1.48113 -23.5705 -3.26609 0.931534 -7.44608 
16.8744 95.8409 17.875 -97.6785 0.212944 -94.954 179.248 26.4416 91.1379 -52.2528 11.1111 5.4548 73.0506 6.89739 -0.7126 12.5366 0.0745947 1.09578 178.486 -2.44127 96.9582 -33.4442 -44.639 -5.82489 76.1916 -11.08 -6.50403 8.4841 -4.15086 9.11205 1.83035 8.27765 -89.5387 10.3124 3.85765 0.582757 -1.35289 3.87955 0.412152 -23.9266 3.50395 1.71652 -3.91395 3.50399 1.71652 86.5943 -32.6893 -112.207 32.9301 -8.55851 -14.4063 -5.30728 -31.0172 -25.7751 -25.0547 0.132453 -9.73652 -82.4487 -50.7519 90.1601 -37.0406 15.4071 13.8807 1.55945 18.6365 -9.7802 -12.0611 0.201704 -7.52427 -5.37796 -1.16471 -23.3031 -3.79952 1.14826 -9.81798 
12.0717 95.4702 18.7294 -96.7996 9.3795 -93.0281 179.793 24.3089 86.445 -29.4916 24.9898 1.49959 67.2832 3.44097 -3.61911 25.1101 -4.67855 7.71386 176.373 -5.7309 93.2428 -34.2478 -55.7895 -6.9598 76.3147 -13.5892 -7.99679 7.54117 -5.65582 11.5527 1.89038 8.23285 -89.3919 10.3967 4.04443 0.853948 -1.26817 4.07807 0.674832 -23.8432 3.60061 2.03135 -3.83051 3.6006 2.03134 86.0157 -31.993 -113.605 32.1225 -13.6875 -16.2043 -3.14645 -32.6882 -23.0007 -25.1361 -0.105603 -8.68261 -82.1401 -51.5324 90.6846 -34.2495 17.6233 11.3862 1.98368 20.4682 -11.1692 -9.9996 0.0611321 -6.64477 -5.83362 -1.4183 -22.0161 -3.89864 0.724339 -11.5247 
5.62997 94.3252 18.381 -96.052 16.2714 -92.356 179.141 21.1149 82.4492 -17.1645 20.3436 -0.640459 65.6473 2.34995 -7.35916 23.4932 -5.75316 9.36554 174.959 -9.65102 90.4488 -35.5949 -59.8424 -8.68591 77.6939 -15.1173 -7.42781 7.53793 -6.82806 13.5165 1.80963 7.99835 -89.2826 10.8618 3.93459 1.05808 -0.803482 3.97731 0.883632 -23.3737 3.43455 2.19278 -3.36102 3.43453 2.19277 85.4268 -32.0793 -114.67 32.6951 -16.9942 -15.1193 0.724322 -33.9613 -18.4892 -23.0708 -0.147157 -8.93057 -82.2788 -51.3855 90.4664 -27.5268 14.9324 7.15604 1.87491 12.5246 -10.277 -4.01801 -0.104024 -3.70909 -7.38752 -1.91358 -19.9533 -2.74716 -0.333875 -12.5792 
